<svg width="20" height="20" viewBox="0 0 20 20" fill="none" xmlns="http://www.w3.org/2000/svg">
<path d="M13.4915 1.6665H6.50817C3.47484 1.6665 1.6665 3.47484 1.6665 6.50817V13.4832C1.6665 16.5248 3.47484 18.3332 6.50817 18.3332H13.4832C16.5165 18.3332 18.3248 16.5248 18.3248 13.4915V6.50817C18.3332 3.47484 16.5248 1.6665 13.4915 1.6665ZM13.3832 9.30817L10.4415 12.2498C10.3165 12.3748 10.1582 12.4332 9.99984 12.4332C9.8415 12.4332 9.68317 12.3748 9.55817 12.2498L6.6165 9.30817C6.37484 9.0665 6.37484 8.6665 6.6165 8.42484C6.85817 8.18317 7.25817 8.18317 7.49984 8.42484L9.99984 10.9248L12.4998 8.42484C12.7415 8.18317 13.1415 8.18317 13.3832 8.42484C13.6248 8.6665 13.6248 9.05817 13.3832 9.30817Z" fill="#E8E8E8"/>
</svg>
