<svg width="88" height="88" viewBox="0 0 88 88" fill="none" xmlns="http://www.w3.org/2000/svg">
<path opacity="0.4" d="M44.0002 80.6666C64.2506 80.6666 80.6668 64.2504 80.6668 43.9999C80.6668 23.7495 64.2506 7.33325 44.0002 7.33325C23.7497 7.33325 7.3335 23.7495 7.3335 43.9999C7.3335 64.2504 23.7497 80.6666 44.0002 80.6666Z" fill="#FF5C5C"/>
<path d="M47.8865 44.0001L56.3198 35.5667C57.3832 34.5034 57.3832 32.7434 56.3198 31.6801C55.2565 30.6167 53.4965 30.6167 52.4332 31.6801L43.9998 40.1134L35.5665 31.6801C34.5032 30.6167 32.7432 30.6167 31.6798 31.6801C30.6165 32.7434 30.6165 34.5034 31.6798 35.5667L40.1132 44.0001L31.6798 52.4334C30.6165 53.4967 30.6165 55.2567 31.6798 56.3201C32.2298 56.8701 32.9265 57.1267 33.6232 57.1267C34.3198 57.1267 35.0165 56.8701 35.5665 56.3201L43.9998 47.8867L52.4332 56.3201C52.9832 56.8701 53.6798 57.1267 54.3765 57.1267C55.0732 57.1267 55.7698 56.8701 56.3198 56.3201C57.3832 55.2567 57.3832 53.4967 56.3198 52.4334L47.8865 44.0001Z" fill="#FF5C5C"/>
</svg>
