<svg width="20" height="20" viewBox="0 0 20 20" fill="none" xmlns="http://www.w3.org/2000/svg">
<path d="M16.6414 8.3335H3.30811V15.0002C3.30811 17.5002 4.14144 18.3335 6.64144 18.3335H13.3081C15.8081 18.3335 16.6414 17.5002 16.6414 15.0002V8.3335Z" stroke="#E8E8E8" stroke-miterlimit="10" stroke-linecap="round" stroke-linejoin="round"/>
<path d="M17.9168 5.83317V6.6665C17.9168 7.58317 17.4752 8.33317 16.2502 8.33317H3.75016C2.47516 8.33317 2.0835 7.58317 2.0835 6.6665V5.83317C2.0835 4.9165 2.47516 4.1665 3.75016 4.1665H16.2502C17.4752 4.1665 17.9168 4.9165 17.9168 5.83317Z" stroke="#E8E8E8" stroke-miterlimit="10" stroke-linecap="round" stroke-linejoin="round"/>
<path d="M9.69998 4.16686H5.09998C4.81665 3.85853 4.82498 3.38353 5.12498 3.08353L6.30832 1.9002C6.61665 1.59186 7.12498 1.59186 7.43332 1.9002L9.69998 4.16686Z" stroke="#E8E8E8" stroke-miterlimit="10" stroke-linecap="round" stroke-linejoin="round"/>
<path d="M14.8915 4.16686H10.2915L12.5582 1.9002C12.8665 1.59186 13.3748 1.59186 13.6832 1.9002L14.8665 3.08353C15.1665 3.38353 15.1748 3.85853 14.8915 4.16686Z" stroke="#E8E8E8" stroke-miterlimit="10" stroke-linecap="round" stroke-linejoin="round"/>
<path d="M7.4502 8.3335V12.6168C7.4502 13.2835 8.18353 13.6752 8.74186 13.3168L9.5252 12.8002C9.80853 12.6168 10.1669 12.6168 10.4419 12.8002L11.1835 13.3002C11.7335 13.6668 12.4752 13.2752 12.4752 12.6085V8.3335H7.4502Z" stroke="#E8E8E8" stroke-miterlimit="10" stroke-linecap="round" stroke-linejoin="round"/>
</svg>
