<svg width="90" height="107" viewBox="0 0 90 107" fill="none" xmlns="http://www.w3.org/2000/svg">
<g filter="url(#filter0_d_218_2431)">
<path d="M43.8216 59.4768C44.3961 59.1777 45.0797 59.1754 45.6562 59.4704L72.5213 73.2197C73.973 73.9627 73.973 76.0375 72.5213 76.7805L45.6562 90.5298C45.0797 90.8249 44.3961 90.8225 43.8216 90.5235L17.4081 76.7742C15.9727 76.027 15.9727 73.9733 17.4081 73.2261L43.8216 59.4768Z" fill="black" fill-opacity="0.01"/>
</g>
<path d="M40.2871 3.26965C43.2076 1.60087 46.7924 1.60087 49.7129 3.26965L74.7129 17.5548C77.6729 19.2462 79.5 22.3947 79.5 25.8038V54.1964C79.5 57.6055 77.6729 60.754 74.7129 62.4454L49.7129 76.7306C46.7924 78.3994 43.2076 78.3994 40.2871 76.7306L15.2871 62.4454C12.3271 60.754 10.5 57.6056 10.5 54.1964V25.8038C10.5 22.3947 12.3271 19.2462 15.2871 17.5548L40.2871 3.26965Z" stroke="#6600CC"/>
<path d="M13.3335 27.4326C13.3335 23.8642 15.235 20.5662 18.3231 18.7783L39.9898 6.23448C43.0891 4.44016 46.9113 4.44016 50.0105 6.23448L71.6772 18.7783C74.7654 20.5662 76.6668 23.8642 76.6668 27.4326V52.5682C76.6668 56.1366 74.7654 59.4346 71.6772 61.2225L50.0105 73.7663C46.9113 75.5607 43.0891 75.5607 39.9898 73.7663L18.3231 61.2225C15.235 59.4346 13.3335 56.1366 13.3335 52.5682V27.4326Z" fill="#AC5DD9"/>
<path d="M45 43.1392C45 39.2911 47.2081 35.7843 50.6784 34.1213L71.8928 23.9548C74.1054 22.8944 76.6667 24.5072 76.6667 26.9607V52.5681C76.6667 56.1365 74.7652 59.4345 71.677 61.2224L50.0035 73.7703C47.7812 75.0568 45 73.4533 45 70.8855L45 58.3337L45 43.1392Z" fill="#6600CC"/>
<path d="M13.3335 26.9686C13.3335 24.5131 15.8984 22.9004 18.1113 23.9645L39.3337 34.1692C42.7974 35.8348 45.0002 39.3381 45.0002 43.1815V69.5628C45.0002 69.5628 45.0274 71.9711 45.5885 72.7818C46.0693 73.4765 46.8422 73.9568 47.5414 74.1068C48.5513 74.3235 49.588 73.9918 49.588 73.9918C46.7515 75.6459 43.2457 75.6513 40.404 74.0061L18.3231 61.2225C15.235 59.4346 13.3335 56.1366 13.3335 52.5682V26.9686Z" fill="#4D0099"/>
<defs>
<filter id="filter0_d_218_2431" x="0.331543" y="43.2509" width="89.2783" height="63.4985" filterUnits="userSpaceOnUse" color-interpolation-filters="sRGB">
<feFlood flood-opacity="0" result="BackgroundImageFix"/>
<feColorMatrix in="SourceAlpha" type="matrix" values="0 0 0 0 0 0 0 0 0 0 0 0 0 0 0 0 0 0 127 0" result="hardAlpha"/>
<feOffset/>
<feGaussianBlur stdDeviation="8"/>
<feColorMatrix type="matrix" values="0 0 0 0 0.4 0 0 0 0 0 0 0 0 0 0.8 0 0 0 0.4 0"/>
<feBlend mode="normal" in2="BackgroundImageFix" result="effect1_dropShadow_218_2431"/>
<feBlend mode="normal" in="SourceGraphic" in2="effect1_dropShadow_218_2431" result="shape"/>
</filter>
</defs>
</svg>
