<svg width="90" height="107" viewBox="0 0 90 107" fill="none" xmlns="http://www.w3.org/2000/svg">
<g filter="url(#filter0_d_216_2817)">
<path d="M43.8216 59.4767C44.3961 59.1776 45.0797 59.1753 45.6562 59.4703L72.5213 73.2196C73.973 73.9626 73.973 76.0374 72.5213 76.7804L45.6562 90.5297C45.0797 90.8247 44.3961 90.8224 43.8216 90.5233L17.4081 76.774C15.9727 76.0269 15.9727 73.9731 17.4081 73.226L43.8216 59.4767Z" fill="black" fill-opacity="0.01"/>
</g>
<path d="M40.2871 3.26953C43.2076 1.60075 46.7924 1.60075 49.7129 3.26953L74.7129 17.5547C77.6729 19.2461 79.5 22.3946 79.5 25.8037V54.1963C79.5 57.6054 77.6729 60.7539 74.7129 62.4453L49.7129 76.7305C46.7924 78.3993 43.2076 78.3993 40.2871 76.7305L15.2871 62.4453C12.3271 60.7539 10.5 57.6054 10.5 54.1963V25.8037C10.5 22.3946 12.3271 19.2461 15.2871 17.5547L40.2871 3.26953Z" stroke="#E63535"/>
<path d="M13.3335 27.4322C13.3335 23.8639 15.235 20.5659 18.3231 18.778L39.9898 6.23411C43.0891 4.43979 46.9113 4.43979 50.0105 6.23411L71.6772 18.778C74.7654 20.5659 76.6668 23.8639 76.6668 27.4322V52.5678C76.6668 56.1362 74.7654 59.4342 71.6772 61.2221L50.0105 73.766C46.9113 75.5603 43.0891 75.5603 39.9898 73.766L18.3231 61.2221C15.235 59.4342 13.3335 56.1362 13.3335 52.5678V27.4322Z" fill="#FF5C5C"/>
<path d="M45 43.1389C45 39.2907 47.2081 35.784 50.6784 34.1209L71.8928 23.9544C74.1054 22.894 76.6667 24.5068 76.6667 26.9604V52.5678C76.6667 56.1361 74.7652 59.4341 71.677 61.222L50.0035 73.7699C47.7812 75.0564 45 73.4529 45 70.8851L45 58.3333L45 43.1389Z" fill="#FF3B3B"/>
<path d="M13.3335 26.9682C13.3335 24.5127 15.8984 22.9 18.1113 23.9641L39.3337 34.1689C42.7974 35.8344 45.0002 39.3377 45.0002 43.1811V69.5624C45.0002 69.5624 45.0274 71.9708 45.5885 72.7814C46.0693 73.4761 46.8422 73.9564 47.5414 74.1064C48.5513 74.3231 49.588 73.9915 49.588 73.9915C46.7515 75.6455 43.2457 75.651 40.404 74.0058L18.3231 61.2221C15.235 59.4342 13.3335 56.1362 13.3335 52.5679V26.9682Z" fill="#E63535"/>
<defs>
<filter id="filter0_d_216_2817" x="0.331543" y="43.2507" width="89.2783" height="63.4985" filterUnits="userSpaceOnUse" color-interpolation-filters="sRGB">
<feFlood flood-opacity="0" result="BackgroundImageFix"/>
<feColorMatrix in="SourceAlpha" type="matrix" values="0 0 0 0 0 0 0 0 0 0 0 0 0 0 0 0 0 0 127 0" result="hardAlpha"/>
<feOffset/>
<feGaussianBlur stdDeviation="8"/>
<feColorMatrix type="matrix" values="0 0 0 0 1 0 0 0 0 0.231373 0 0 0 0 0.231373 0 0 0 0.4 0"/>
<feBlend mode="normal" in2="BackgroundImageFix" result="effect1_dropShadow_216_2817"/>
<feBlend mode="normal" in="SourceGraphic" in2="effect1_dropShadow_216_2817" result="shape"/>
</filter>
</defs>
</svg>
