<svg width="90" height="107" viewBox="0 0 90 107" fill="none" xmlns="http://www.w3.org/2000/svg">
<g filter="url(#filter0_d_215_1963)">
<path d="M43.8216 59.4767C44.3961 59.1776 45.0797 59.1753 45.6562 59.4703L72.5213 73.2196C73.973 73.9626 73.973 76.0374 72.5213 76.7804L45.6562 90.5297C45.0797 90.8247 44.3961 90.8224 43.8216 90.5233L17.4081 76.774C15.9727 76.0269 15.9727 73.9731 17.4081 73.226L43.8216 59.4767Z" fill="black" fill-opacity="0.01"/>
</g>
<path d="M13.3335 27.4322C13.3335 23.8638 15.235 20.5658 18.3231 18.7779L39.9898 6.23405C43.0891 4.43973 46.9113 4.43973 50.0105 6.23405L71.6772 18.7779C74.7654 20.5658 76.6668 23.8638 76.6668 27.4322V52.5678C76.6668 56.1362 74.7654 59.4342 71.6772 61.2221L50.0105 73.7659C46.9113 75.5602 43.0891 75.5602 39.9898 73.7659L18.3231 61.2221C15.235 59.4342 13.3335 56.1362 13.3335 52.5678V27.4322Z" fill="#73DFE7"/>
<path d="M45 43.1389C45 39.2907 47.2081 35.784 50.6784 34.1209L71.8928 23.9544C74.1054 22.894 76.6667 24.5068 76.6667 26.9604V52.5678C76.6667 56.1361 74.7652 59.4341 71.677 61.222L50.0035 73.7699C47.7812 75.0564 45 73.4529 45 70.8851L45 58.3333L45 43.1389Z" fill="#00CFDE"/>
<path d="M13.3335 26.9682C13.3335 24.5127 15.8984 22.9 18.1113 23.9641L39.3337 34.1688C42.7974 35.8343 45.0002 39.3376 45.0002 43.181V69.5624C45.0002 69.5624 45.0274 71.9707 45.5885 72.7813C46.0693 73.4761 46.8422 73.9564 47.5414 74.1064C48.5513 74.3231 49.588 73.9914 49.588 73.9914V73.9914C46.7515 75.6454 43.2457 75.6509 40.404 74.0057L18.3231 61.2221C15.235 59.4342 13.3335 56.1362 13.3335 52.5678V26.9682Z" fill="#00B7C4"/>
<defs>
<filter id="filter0_d_215_1963" x="0.331543" y="43.2507" width="89.2783" height="63.4985" filterUnits="userSpaceOnUse" color-interpolation-filters="sRGB">
<feFlood flood-opacity="0" result="BackgroundImageFix"/>
<feColorMatrix in="SourceAlpha" type="matrix" values="0 0 0 0 0 0 0 0 0 0 0 0 0 0 0 0 0 0 127 0" result="hardAlpha"/>
<feOffset/>
<feGaussianBlur stdDeviation="8"/>
<feColorMatrix type="matrix" values="0 0 0 0 0 0 0 0 0 0.811765 0 0 0 0 0.870588 0 0 0 0.4 0"/>
<feBlend mode="normal" in2="BackgroundImageFix" result="effect1_dropShadow_215_1963"/>
<feBlend mode="normal" in="SourceGraphic" in2="effect1_dropShadow_215_1963" result="shape"/>
</filter>
</defs>
</svg>
