<svg width="88" height="88" viewBox="0 0 88 88" fill="none" xmlns="http://www.w3.org/2000/svg">
<path opacity="0.4" d="M44.0002 80.6667C64.2506 80.6667 80.6668 64.2505 80.6668 44C80.6668 23.7496 64.2506 7.33337 44.0002 7.33337C23.7497 7.33337 7.3335 23.7496 7.3335 44C7.3335 64.2505 23.7497 80.6667 44.0002 80.6667Z" fill="#39D98A"/>
<path d="M38.7933 57.1267C38.0599 57.1267 37.3633 56.8333 36.8499 56.32L26.4733 45.9433C25.4099 44.88 25.4099 43.12 26.4733 42.0567C27.5366 40.9933 29.2966 40.9933 30.3599 42.0567L38.7933 50.49L57.64 31.6433C58.7033 30.58 60.4633 30.58 61.5266 31.6433C62.59 32.7067 62.59 34.4667 61.5266 35.53L40.7366 56.32C40.2233 56.8333 39.5266 57.1267 38.7933 57.1267Z" fill="#39D98A"/>
</svg>
