<svg width="22" height="22" viewBox="0 0 22 22" fill="none" xmlns="http://www.w3.org/2000/svg">
<path opacity="0.4" d="M16.5365 12.4207C16.1515 12.7965 15.9315 13.3373 15.9865 13.9148C16.069 14.9048 16.9765 15.629 17.9665 15.629H19.7082V16.7198C19.7082 18.6173 18.159 20.1665 16.2615 20.1665H5.73817C3.84067 20.1665 2.2915 18.6173 2.2915 16.7198V10.5507C2.2915 8.65318 3.84067 7.104 5.73817 7.104H16.2615C18.159 7.104 19.7082 8.65318 19.7082 10.5507V11.8707H17.8565C17.3432 11.8707 16.8757 12.0723 16.5365 12.4207Z" fill="white"/>
<path d="M13.6123 3.62082V7.10415H5.73817C3.84067 7.10415 2.2915 8.65332 2.2915 10.5508V7.18667C2.2915 6.09584 2.96067 5.12413 3.97817 4.73913L11.2565 1.98913C12.3932 1.56746 13.6123 2.40166 13.6123 3.62082Z" fill="white"/>
<path d="M20.6802 12.8056V14.694C20.6802 15.1981 20.2769 15.6106 19.7635 15.6289H17.9669C16.9769 15.6289 16.0694 14.9048 15.9869 13.9148C15.9319 13.3373 16.1519 12.7964 16.5369 12.4206C16.876 12.0722 17.3435 11.8706 17.8569 11.8706H19.7635C20.2769 11.8889 20.6802 12.3014 20.6802 12.8056Z" fill="white"/>
<path d="M12.8332 11.6875H6.4165C6.04067 11.6875 5.729 11.3758 5.729 11C5.729 10.6242 6.04067 10.3125 6.4165 10.3125H12.8332C13.209 10.3125 13.5207 10.6242 13.5207 11C13.5207 11.3758 13.209 11.6875 12.8332 11.6875Z" fill="white"/>
</svg>
