<svg width="20" height="20" viewBox="0 0 20 20" fill="none" xmlns="http://www.w3.org/2000/svg">
<path opacity="0.8" d="M10.7497 2.09999L10.7247 2.15833L8.30801 7.76666H5.93301C5.36634 7.76666 4.83301 7.87499 4.33301 8.09166L5.79134 4.60833L5.82467 4.53333L5.87467 4.39999C5.89967 4.34166 5.91634 4.29166 5.94134 4.24999C7.03301 1.72499 8.26634 1.14999 10.7497 2.09999Z" fill="white"/>
<path d="M15.2419 7.93331C14.8669 7.82498 14.4753 7.76664 14.0669 7.76664H8.30859L10.7253 2.15831L10.7503 2.09998C10.8669 2.14164 10.9919 2.19998 11.1169 2.24164L12.9586 3.01664C13.9836 3.44164 14.7003 3.88331 15.1419 4.41664C15.2169 4.51664 15.2836 4.60831 15.3503 4.71664C15.4253 4.83331 15.4836 4.94998 15.5169 5.07498C15.5503 5.14998 15.5753 5.21664 15.5919 5.29164C15.8086 5.99998 15.6753 6.85831 15.2419 7.93331Z" fill="white"/>
<path opacity="0.4" d="M18.1329 11.8334V13.4584C18.1329 13.6251 18.1245 13.7917 18.1162 13.9501C17.9579 16.8667 16.3329 18.3334 13.2495 18.3334H6.74954C6.54121 18.3334 6.34954 18.3167 6.15788 18.2917C3.50788 18.1167 2.09121 16.7001 1.90788 14.0501C1.88288 13.8501 1.86621 13.6584 1.86621 13.4584V11.8334C1.86621 10.1584 2.88288 8.71672 4.33288 8.09172C4.83288 7.87506 5.36621 7.76672 5.93288 7.76672H14.0662C14.4745 7.76672 14.8662 7.82506 15.2412 7.93339C16.9079 8.44172 18.1329 9.99172 18.1329 11.8334Z" fill="white"/>
<path opacity="0.6" d="M5.79121 4.60828L4.33288 8.09161C2.88288 8.71661 1.86621 10.1583 1.86621 11.8333V9.39161C1.86621 7.02494 3.54954 5.04994 5.79121 4.60828Z" fill="white"/>
<path opacity="0.6" d="M18.1329 9.39162V11.8333C18.1329 9.99162 16.9079 8.44162 15.2412 7.93328C15.6745 6.85828 15.8079 5.99995 15.5912 5.29162C15.5745 5.21662 15.5495 5.14995 15.5162 5.07495C17.0745 5.88328 18.1329 7.52495 18.1329 9.39162Z" fill="white"/>
<path d="M12.0837 13.9584H7.91699C7.57533 13.9584 7.29199 13.675 7.29199 13.3334C7.29199 12.9917 7.57533 12.7084 7.91699 12.7084H12.0837C12.4253 12.7084 12.7087 12.9917 12.7087 13.3334C12.7087 13.675 12.4253 13.9584 12.0837 13.9584Z" fill="white"/>
</svg>
