<svg width="20" height="20" viewBox="0 0 20 20" fill="none" xmlns="http://www.w3.org/2000/svg">
<path d="M13.4915 1.6665H6.50817C3.47484 1.6665 1.6665 3.47484 1.6665 6.50817V13.4832C1.6665 16.5248 3.47484 18.3332 6.50817 18.3332H13.4832C16.5165 18.3332 18.3248 16.5248 18.3248 13.4915V6.50817C18.3332 3.47484 16.5248 1.6665 13.4915 1.6665ZM12.7998 11.9165C13.0415 12.1582 13.0415 12.5582 12.7998 12.7998C12.6748 12.9248 12.5165 12.9832 12.3582 12.9832C12.1998 12.9832 12.0415 12.9248 11.9165 12.7998L9.99984 10.8832L8.08317 12.7998C7.95817 12.9248 7.79984 12.9832 7.6415 12.9832C7.48317 12.9832 7.32484 12.9248 7.19984 12.7998C6.95817 12.5582 6.95817 12.1582 7.19984 11.9165L9.1165 9.99984L7.19984 8.08317C6.95817 7.8415 6.95817 7.4415 7.19984 7.19984C7.4415 6.95817 7.8415 6.95817 8.08317 7.19984L9.99984 9.1165L11.9165 7.19984C12.1582 6.95817 12.5582 6.95817 12.7998 7.19984C13.0415 7.4415 13.0415 7.8415 12.7998 8.08317L10.8832 9.99984L12.7998 11.9165Z" fill="white"/>
</svg>
