<svg width="32" height="32" viewBox="0 0 32 32" fill="none" xmlns="http://www.w3.org/2000/svg">
<path d="M26.2533 9.80002C25.92 9.36002 25.2933 9.26669 24.8533 9.60002C24.4133 9.93336 24.32 10.56 24.6533 11C26.0933 12.92 26.8533 15.16 26.8533 17.48C26.8533 23.4667 21.9866 28.3334 16 28.3334C10.0133 28.3334 5.14663 23.4667 5.14663 17.48C5.14663 11.4934 10.0133 6.64002 16 6.64002C16.7733 6.64002 17.56 6.73336 18.4133 6.93336C18.4533 6.94669 18.4933 6.93336 18.5466 6.93336C18.5733 6.93336 18.6133 6.96002 18.64 6.96002C18.68 6.96002 18.7066 6.94669 18.7466 6.94669C18.8 6.94669 18.84 6.93336 18.88 6.92002C18.9466 6.90669 19.0133 6.88002 19.08 6.84002C19.12 6.81336 19.1733 6.80002 19.2133 6.77336C19.2266 6.76002 19.2533 6.76002 19.2666 6.74669C19.3066 6.72002 19.32 6.68002 19.3466 6.65336C19.4 6.60002 19.44 6.56002 19.48 6.49336C19.52 6.44002 19.5333 6.37336 19.56 6.32002C19.5733 6.28002 19.6 6.24002 19.6133 6.20002C19.6133 6.17336 19.6133 6.16002 19.6133 6.13336C19.6266 6.06669 19.6266 6.00002 19.6133 5.93336C19.6133 5.86669 19.6133 5.81336 19.6 5.74669C19.5866 5.69336 19.56 5.64002 19.5333 5.57336C19.5066 5.50669 19.48 5.44002 19.44 5.38669C19.4266 5.36002 19.4266 5.34669 19.4133 5.33336L16.7733 2.04002C16.4266 1.61336 15.8 1.54669 15.3733 1.88002C14.9466 2.22669 14.88 2.85336 15.2133 3.28002L16.3066 4.64002C16.2 4.64002 16.0933 4.62669 15.9866 4.62669C8.90663 4.62669 3.1333 10.3867 3.1333 17.48C3.1333 24.5734 8.8933 30.3334 15.9866 30.3334C23.08 30.3334 28.84 24.5734 28.84 17.48C28.8533 14.72 27.9466 12.0667 26.2533 9.80002Z" fill="#E8E8E8"/>
<path d="M12.7202 22.2267C12.1735 22.2267 11.7202 21.7733 11.7202 21.2267V16.7067L11.4669 17C11.0935 17.4133 10.4669 17.44 10.0535 17.08C9.64021 16.7067 9.61355 16.08 9.97355 15.6667L11.9735 13.44C12.2535 13.1333 12.6935 13.0267 13.0802 13.1733C13.4669 13.32 13.7202 13.6933 13.7202 14.1067V21.24C13.7202 21.7867 13.2802 22.2267 12.7202 22.2267Z" fill="#E8E8E8"/>
<path d="M18.6667 22.2267C16.64 22.2267 15 20.5867 15 18.5601V16.7601C15 14.7334 16.64 13.0934 18.6667 13.0934C20.6933 13.0934 22.3333 14.7334 22.3333 16.7601V18.5601C22.3333 20.5867 20.6933 22.2267 18.6667 22.2267ZM18.6667 15.1067C17.7467 15.1067 17 15.8534 17 16.7734V18.5734C17 19.4934 17.7467 20.2401 18.6667 20.2401C19.5867 20.2401 20.3333 19.4934 20.3333 18.5734V16.7734C20.3333 15.8534 19.5867 15.1067 18.6667 15.1067Z" fill="#E8E8E8"/>
</svg>
