<svg width="183" height="390" viewBox="0 0 183 390" fill="none" xmlns="http://www.w3.org/2000/svg">
<g clip-path="url(#clip0_603_5220)">
<circle cx="-173" cy="192" r="356" fill="url(#paint0_linear_603_5220)"/>
<path d="M101.333 169.12V178.88C101.333 180.88 99.1598 182.133 97.4265 181.133L93.1998 178.693L88.9732 176.253L88.3198 175.88V172.12L88.9732 171.747L93.1998 169.307L97.4265 166.867C99.1598 165.867 101.333 167.12 101.333 169.12Z" fill="white"/>
<path d="M88.3199 169.12V178.88C88.3199 180.88 86.1466 182.133 84.4266 181.133L80.1866 178.693L75.9599 176.253C74.2399 175.253 74.2399 172.747 75.9599 171.747L80.1866 169.307L84.4266 166.867C86.1466 165.867 88.3199 167.12 88.3199 169.12Z" fill="white"/>
<path d="M85.2726 201.04C85.0246 201.04 84.8006 200.992 84.6006 200.896C84.4086 200.8 84.2646 200.664 84.1686 200.488C84.1926 200.856 84.2046 201.276 84.2046 201.748V205H83.5686V201.748C83.5686 200.956 83.5246 200.268 83.4366 199.684C83.3566 199.1 83.2006 198.396 82.9686 197.572L83.5686 197.332L84.1206 199.432C84.2086 199.744 84.3486 199.984 84.5406 200.152C84.7406 200.312 84.9766 200.392 85.2486 200.392C85.5686 200.392 85.8406 200.288 86.0646 200.08C86.2886 199.872 86.4006 199.612 86.4006 199.3C86.4006 198.948 86.3206 198.34 86.1606 197.476L86.7966 197.332C86.9566 198.22 87.0366 198.88 87.0366 199.312C87.0366 199.632 86.9606 199.924 86.8086 200.188C86.6566 200.452 86.4446 200.66 86.1726 200.812C85.9006 200.964 85.6006 201.04 85.2726 201.04ZM90.9166 202.468L89.2246 205H88.4446L90.3886 202.18L88.5046 199.468H89.2726L90.9166 201.892L92.5606 199.468H93.3406L91.4446 202.18L93.4006 205H92.6086L90.9166 202.468Z" fill="#E8E8E8"/>
</g>
<defs>
<linearGradient id="paint0_linear_603_5220" x1="1" y1="192" x2="183" y2="192" gradientUnits="userSpaceOnUse">
<stop stop-opacity="0"/>
<stop offset="1" stop-opacity="0.7"/>
</linearGradient>
<clipPath id="clip0_603_5220">
<rect width="183" height="390" fill="white"/>
</clipPath>
</defs>
</svg>
