<svg width="183" height="390" viewBox="0 0 183 390" fill="none" xmlns="http://www.w3.org/2000/svg">
<g clip-path="url(#clip0_603_5219)">
<circle cx="356" cy="356" r="356" transform="matrix(-1 0 0 1 712 -164)" fill="url(#paint0_linear_603_5219)"/>
<path d="M75.6665 169.12V178.88C75.6665 180.88 77.8398 182.133 79.5732 181.133L83.7998 178.693L88.0265 176.253L88.6798 175.88V172.12L88.0265 171.747L83.7998 169.307L79.5732 166.867C77.8398 165.867 75.6665 167.12 75.6665 169.12Z" fill="white"/>
<path d="M88.6802 169.12V178.88C88.6802 180.88 90.8535 182.133 92.5735 181.133L96.8135 178.693L101.04 176.253C102.76 175.253 102.76 172.747 101.04 171.747L96.8135 169.307L92.5735 166.867C90.8535 165.867 88.6802 167.12 88.6802 169.12Z" fill="white"/>
<path d="M86.2726 201.04C86.0246 201.04 85.8006 200.992 85.6006 200.896C85.4086 200.8 85.2646 200.664 85.1686 200.488C85.1926 200.856 85.2046 201.276 85.2046 201.748V205H84.5686V201.748C84.5686 200.956 84.5246 200.268 84.4366 199.684C84.3566 199.1 84.2006 198.396 83.9686 197.572L84.5686 197.332L85.1206 199.432C85.2086 199.744 85.3486 199.984 85.5406 200.152C85.7406 200.312 85.9766 200.392 86.2486 200.392C86.5686 200.392 86.8406 200.288 87.0646 200.08C87.2886 199.872 87.4006 199.612 87.4006 199.3C87.4006 198.948 87.3206 198.34 87.1606 197.476L87.7966 197.332C87.9566 198.22 88.0366 198.88 88.0366 199.312C88.0366 199.632 87.9606 199.924 87.8086 200.188C87.6566 200.452 87.4446 200.66 87.1726 200.812C86.9006 200.964 86.6006 201.04 86.2726 201.04ZM91.9166 202.468L90.2246 205H89.4446L91.3886 202.18L89.5046 199.468H90.2726L91.9166 201.892L93.5606 199.468H94.3406L92.4446 202.18L94.4006 205H93.6086L91.9166 202.468Z" fill="#E8E8E8"/>
</g>
<defs>
<linearGradient id="paint0_linear_603_5219" x1="530" y1="356" x2="712" y2="356" gradientUnits="userSpaceOnUse">
<stop stop-opacity="0"/>
<stop offset="1" stop-opacity="0.7"/>
</linearGradient>
<clipPath id="clip0_603_5219">
<rect width="183" height="390" fill="white"/>
</clipPath>
</defs>
</svg>
