<svg width="20" height="20" viewBox="0 0 20 20" fill="none" xmlns="http://www.w3.org/2000/svg">
<rect x="1.6665" y="1.6665" width="16.6667" height="13.3333" rx="4" stroke="white"/>
<path d="M14.1668 18.3335H5.8335" stroke="white" stroke-linecap="round"/>
<path d="M11.2105 11.4357C10.9966 11.4357 10.8896 11.3227 10.8896 11.0965V5.35821C10.8896 5.1321 10.9966 5.01904 11.2105 5.01904H13.218C14.153 5.01904 14.868 5.29099 15.363 5.83488C15.8641 6.37877 16.1146 7.17321 16.1146 8.21821C16.1146 9.2571 15.8641 10.0546 15.363 10.6107C14.868 11.1607 14.153 11.4357 13.218 11.4357H11.2105ZM12.1088 10.409H13.218C13.7619 10.409 14.1744 10.2257 14.4555 9.85904C14.7366 9.48627 14.8771 8.93932 14.8771 8.21821C14.8771 7.50321 14.7366 6.96238 14.4555 6.59571C14.1744 6.22904 13.7619 6.04571 13.218 6.04571H12.1088V10.409Z" fill="white"/>
<path d="M4.6615 11.4538C4.49039 11.4538 4.36511 11.4324 4.28567 11.3897C4.20623 11.3408 4.1665 11.2735 4.1665 11.188V5.26632C4.1665 5.18077 4.20623 5.1166 4.28567 5.07382C4.36511 5.02493 4.49039 5.00049 4.6615 5.00049H4.89067C5.06789 5.00049 5.19317 5.02493 5.2665 5.07382C5.34595 5.1166 5.38567 5.18077 5.38567 5.26632V7.64049H8.27317V5.26632C8.27317 5.18077 8.31289 5.1166 8.39234 5.07382C8.47178 5.02493 8.59706 5.00049 8.76817 5.00049H8.99734C9.17456 5.00049 9.29984 5.02493 9.37317 5.07382C9.45262 5.1166 9.49234 5.18077 9.49234 5.26632V11.188C9.49234 11.2735 9.45262 11.3408 9.37317 11.3897C9.29984 11.4324 9.17456 11.4538 8.99734 11.4538H8.76817C8.59706 11.4538 8.47178 11.4324 8.39234 11.3897C8.31289 11.3408 8.27317 11.2735 8.27317 11.188V8.66716H5.38567V11.188C5.38567 11.2735 5.34595 11.3408 5.2665 11.3897C5.19317 11.4324 5.06789 11.4538 4.89067 11.4538H4.6615Z" fill="white"/>
</svg>
