<svg width="20" height="20" viewBox="0 0 20 20" fill="none" xmlns="http://www.w3.org/2000/svg">
<path d="M18.3332 9.24984V5.74984C18.3332 2.83317 17.1665 1.6665 14.2498 1.6665H10.7498C7.83317 1.6665 6.6665 2.83317 6.6665 5.74984V6.6665H9.24984C12.1665 6.6665 13.3332 7.83317 13.3332 10.7498V13.3332H14.2498C17.1665 13.3332 18.3332 12.1665 18.3332 9.24984Z" stroke="white" stroke-linecap="round" stroke-linejoin="round"/>
<path d="M13.3332 14.2498V10.7498C13.3332 7.83317 12.1665 6.6665 9.24984 6.6665H5.74984C2.83317 6.6665 1.6665 7.83317 1.6665 10.7498V14.2498C1.6665 17.1665 2.83317 18.3332 5.74984 18.3332H9.24984C12.1665 18.3332 13.3332 17.1665 13.3332 14.2498Z" stroke="white" stroke-linecap="round" stroke-linejoin="round"/>
<path d="M5.8335 12.5998V11.712C5.8335 10.5727 6.6399 10.1066 7.62387 10.6762L8.39328 11.1201L9.1627 11.564C10.1467 12.1337 10.1467 13.0659 9.1627 13.6355L8.39328 14.0794L7.62387 14.5233C6.6399 15.093 5.8335 14.6269 5.8335 13.4876V12.5998V12.5998Z" stroke="white" stroke-miterlimit="10" stroke-linecap="round" stroke-linejoin="round"/>
</svg>
