<svg width="32" height="32" viewBox="0 0 32 32" fill="none" xmlns="http://www.w3.org/2000/svg">
<path d="M12.7202 22.2267C12.1735 22.2267 11.7202 21.7733 11.7202 21.2267V16.7067L11.4669 17C11.0935 17.4133 10.4669 17.44 10.0535 17.08C9.64021 16.7067 9.61355 16.08 9.97355 15.6667L11.9735 13.44C12.2535 13.1333 12.6935 13.0267 13.0802 13.1733C13.4669 13.32 13.7202 13.6933 13.7202 14.1067V21.24C13.7202 21.7867 13.2802 22.2267 12.7202 22.2267Z" fill="#E8E8E8"/>
<path d="M16.0002 4.64002C15.8935 4.64002 15.7868 4.65335 15.6802 4.65335L16.7735 3.29335C17.1202 2.86668 17.0535 2.22668 16.6135 1.89335C16.1868 1.54668 15.5602 1.61335 15.2135 2.05335L12.5868 5.33335C12.5735 5.34668 12.5735 5.36002 12.5602 5.38668C12.5202 5.44002 12.4935 5.50668 12.4668 5.56002C12.4402 5.62668 12.4135 5.68002 12.4002 5.73335C12.3868 5.80002 12.3868 5.85335 12.3868 5.92002C12.3868 5.98668 12.3868 6.05335 12.3868 6.12002C12.3868 6.14668 12.3868 6.16002 12.3868 6.18668C12.4002 6.22668 12.4268 6.25335 12.4402 6.30668C12.4668 6.37335 12.4802 6.42668 12.5202 6.48002C12.5602 6.53335 12.6002 6.58668 12.6535 6.64002C12.6802 6.66668 12.7068 6.70668 12.7335 6.73335C12.7468 6.74668 12.7735 6.74668 12.7868 6.76002C12.8268 6.78668 12.8668 6.81335 12.9202 6.82668C12.9868 6.86668 13.0535 6.89335 13.1202 6.90668C13.1735 6.93335 13.2135 6.93335 13.2668 6.93335C13.3068 6.93335 13.3335 6.94668 13.3735 6.94668C13.4002 6.94668 13.4402 6.93335 13.4668 6.92002C13.5068 6.92002 13.5468 6.92002 13.6002 6.92002C14.4535 6.72002 15.2535 6.62668 16.0135 6.62668C22.0002 6.62668 26.8668 11.4933 26.8668 17.48C26.8668 23.4667 22.0002 28.3333 16.0135 28.3333C10.0268 28.3333 5.16016 23.4667 5.16016 17.48C5.16016 15.16 5.92016 12.92 7.36016 11C7.69349 10.56 7.60016 9.93335 7.16016 9.60002C6.72016 9.26668 6.09349 9.36002 5.76016 9.80002C4.05349 12.0667 3.16016 14.72 3.16016 17.48C3.16016 24.56 8.92016 30.3333 16.0135 30.3333C23.1068 30.3333 28.8668 24.5733 28.8668 17.48C28.8668 10.3867 23.0802 4.64002 16.0002 4.64002Z" fill="#E8E8E8"/>
<path d="M18.6667 22.2267C16.64 22.2267 15 20.5867 15 18.5601V16.7601C15 14.7334 16.64 13.0934 18.6667 13.0934C20.6933 13.0934 22.3333 14.7334 22.3333 16.7601V18.5601C22.3333 20.5867 20.6933 22.2267 18.6667 22.2267ZM18.6667 15.1067C17.7467 15.1067 17 15.8534 17 16.7734V18.5734C17 19.4934 17.7467 20.2401 18.6667 20.2401C19.5867 20.2401 20.3333 19.4934 20.3333 18.5734V16.7734C20.3333 15.8534 19.5867 15.1067 18.6667 15.1067Z" fill="#E8E8E8"/>
</svg>
