<svg width="20" height="20" viewBox="0 0 20 20" fill="none" xmlns="http://www.w3.org/2000/svg">
<path d="M9.99929 17.917C11.5549 17.917 12.816 16.656 12.816 15.1004C12.816 13.5448 11.5549 12.2837 9.99929 12.2837C8.44369 12.2837 7.18262 13.5448 7.18262 15.1004C7.18262 16.656 8.44369 17.917 9.99929 17.917Z" stroke="white" stroke-miterlimit="10" stroke-linecap="round" stroke-linejoin="round"/>
<path d="M12.7085 10H13.3335C14.0168 10 14.5835 9.44167 14.5835 8.75C14.5835 8.06667 14.0168 7.5 13.3335 7.5C12.6502 7.5 12.0835 8.05833 12.0835 8.75V9.375C12.0835 9.71667 12.3668 10 12.7085 10Z" stroke="white" stroke-miterlimit="10" stroke-linecap="round" stroke-linejoin="round"/>
<path d="M15.9498 16.2502C17.4248 14.7502 18.3332 12.6835 18.3332 10.4168C18.3332 5.81683 14.5998 2.0835 9.99984 2.0835C5.39984 2.0835 1.6665 5.81683 1.6665 10.4168C1.6665 12.6835 2.5665 14.7335 4.03317 16.2418" stroke="white" stroke-miterlimit="10" stroke-linecap="round" stroke-linejoin="round"/>
</svg>
