<svg width="20" height="20" viewBox="0 0 20 20" fill="none" xmlns="http://www.w3.org/2000/svg">
<path d="M10.4165 1.66675H12.4998C16.6665 1.66675 18.3332 3.33341 18.3332 7.50008V12.5001C18.3332 16.6667 16.6665 18.3334 12.4998 18.3334H7.49984C3.33317 18.3334 1.6665 16.6667 1.6665 12.5001V10.8334" stroke="white" stroke-linecap="round" stroke-linejoin="round"/>
<path d="M5.03247 2.14427L2.08244 5.09425C1.96577 5.21092 1.85745 5.42758 1.83245 5.58592L1.67411 6.71092C1.61578 7.11926 1.89912 7.4026 2.30746 7.34426L3.43243 7.18593C3.59077 7.16093 3.81579 7.0526 3.92412 6.93594L6.87411 3.98593C7.38244 3.4776 7.62411 2.88593 6.87411 2.13593C6.13244 1.39426 5.5408 1.63594 5.03247 2.14427Z" stroke="white" stroke-miterlimit="10" stroke-linecap="round" stroke-linejoin="round"/>
<path d="M4.61572 2.56104C4.86572 3.46104 5.5657 4.16101 6.4657 4.41101" stroke="white" stroke-miterlimit="10" stroke-linecap="round" stroke-linejoin="round"/>
<path d="M14.5832 14.2334H13.0415" stroke="white" stroke-linecap="round" stroke-linejoin="round"/>
<path d="M10.8082 14.2334H5.4165" stroke="white" stroke-linecap="round" stroke-linejoin="round"/>
<path d="M14.5834 11.1001H9.9751" stroke="white" stroke-linecap="round" stroke-linejoin="round"/>
<path d="M7.72484 11.1001H5.4165" stroke="white" stroke-linecap="round" stroke-linejoin="round"/>
</svg>
