<svg width="25" height="24" viewBox="0 0 25 24" fill="none" xmlns="http://www.w3.org/2000/svg">
<path d="M12.4998 18.5C16.2393 18.5 19.2707 15.5899 19.2707 12C19.2707 8.41015 16.2393 5.5 12.4998 5.5C8.76041 5.5 5.729 8.41015 5.729 12C5.729 15.5899 8.76041 18.5 12.4998 18.5Z" stroke="white" stroke-width="1.5" stroke-linecap="round" stroke-linejoin="round"/>
<path d="M19.9377 19.14L19.8022 19.01M19.8022 4.99L19.9377 4.86L19.8022 4.99ZM5.06266 19.14L5.19808 19.01L5.06266 19.14ZM12.5002 2.08V2V2.08ZM12.5002 22V21.92V22ZM2.16683 12H2.0835H2.16683ZM22.9168 12H22.8335H22.9168ZM5.19808 4.99L5.06266 4.86L5.19808 4.99Z" stroke="white" stroke-width="2" stroke-linecap="round" stroke-linejoin="round"/>
</svg>
